<svg xmlns="http://www.w3.org/2000/svg" width="209" height="210" fill="none" viewBox="0 0 209 210">
  <g class="Group 1">
    <path stroke="#43EBD3" stroke-linecap="round" stroke-width="14" d="M105 7.5v195" class="Vector 1"/>
    <path stroke="#43EBD3" stroke-linecap="round" stroke-width="14" d="M202 105H7" class="Vector 2"/>
    <path stroke="#43EBD3" stroke-linecap="round" stroke-width="14" d="M173.886 37 36 174.886" class="Vector 4"/>
    <path stroke="#43EBD3" stroke-linecap="round" stroke-width="14" d="M173.886 174.886 36 37" class="Vector 3"/>
    <circle cx="104.5" cy="105.5" r="79.5" fill="#FAF7F5" stroke="#43EBD3" stroke-width="14" class="Ring"/>
    <path stroke="#43EBD3" stroke-linecap="round" stroke-linejoin="round" stroke-width="14" d="m105.128 107.38.201.27.187.289.173.307.156.324.138.341.12.357.099.371.079.385.056.397.034.408.009.418-.015.426-.041.433-.068.439-.094.442-.122.445-.149.445-.177.445-.206.442-.234.438-.263.431-.292.424-.319.415-.348.403-.375.391-.402.375-.429.36-.455.341-.481.322-.504.301-.528.277-.55.254-.572.227-.59.2-.61.172-.628.141-.642.11-.657.078-.67.044-.68.01-.688-.025-.697-.062-.7-.098-.705-.136-.706-.174-.705-.213-.702-.251-.697-.29-.69-.329-.68-.368-.669-.407-.655-.446-.64-.483-.622-.521-.602-.558-.579-.595-.555-.63-.529-.664-.5-.697-.47-.73-.438-.76-.404-.789-.368-.818-.33-.843-.29-.868-.25-.89-.207-.911-.164-.93-.119-.945-.072-.96-.025-.972.024-.982.072-.989.122-.993.173-.996.224-.996.275-.992.327-.987.378-.978.43-.968.48-.954.532-.938.582-.919.633-.897.68-.872.73-.846.777-.816.822-.784.868-.75.91-.711.952-.673.991-.63 1.03-.587 1.065-.54 1.1-.491 1.13-.442 1.161-.388 1.187-.335 1.212-.279 1.233-.222 1.251-.162 1.268-.103 1.282-.042 1.291.02 1.299.084 1.302.147 1.303.212 1.302.276 1.295.342 1.287.406 1.275.471 1.259.536 1.24.6 1.219.665 1.193.727 1.165.79 1.133.85 1.098.91 1.061.968 1.018 1.025.975 1.08.928 1.134.878 1.184.825 1.233.769 1.28.712 1.324.651 1.365.588 1.404.523 1.44.457 1.472.387 1.502.317 1.528.244 1.552.17 1.571.095 1.586.019 1.6-.059 1.608-.136 1.613-.215 1.614-.295 1.612-.373 1.605-.453 1.595-.532 1.58-.611 1.562-.689 1.54-.767 1.514-.843 1.484-.919 1.45-.993 1.413-1.065 1.371-1.136 1.326-1.206 1.277-1.272 1.224-1.336 1.169-1.399 1.11-1.458 1.048-1.515.981-1.569.913-1.619.842-1.667.768-1.71.69-1.751.612-1.787.529-1.82.447-1.849.36-1.874.274-1.894.185-1.91.094-1.924.004-1.93-.089-1.934-.182-1.933-.275-1.927-.369-1.916-.462-1.901-.556-1.882-.649-1.858-.742-1.83-.834-1.795-.924-1.758-1.013-1.716-1.102-1.67-1.187-1.617-1.272-1.563-1.354-1.504-1.433-1.44-1.511-1.373-1.584-1.301-1.656-1.227-1.724-1.148-1.788-1.066-1.85-.982-1.907-.893-1.96-.802-2.01-.709-2.054-.612-2.096-.514-2.131-.414-2.164-.311-2.19-.207-2.212-.102-2.229.004-2.241.112-2.249.22-2.25.328-2.246.437-2.238.545-2.225.654-2.205.761-2.18.868-2.152.974-2.116 1.078-2.076 1.18-2.032 1.282-1.98 1.38-1.926 1.476-1.866 1.57-1.8 1.66-1.732 1.749-1.657 1.833-1.578 1.913-1.496 1.99-1.408 2.064-1.318 2.133-1.224 2.197-1.124 2.257-1.024 2.312-.918 2.363-.812 2.408-.7 2.448-.588 2.483-.473 2.512-.355 2.536-.238 2.555-.116 2.566.004 2.574.127 2.574.25 2.569.373 2.558.497 2.541.62 2.518.741 2.489.864 2.454.985 2.413 1.104 2.367 1.222 2.314 1.338 2.257 1.451 2.192 1.563 2.124 1.67 2.049 1.776 1.97 1.878 1.884 1.976 1.795 2.07 1.7 2.161 1.602 2.248 1.498 2.328 1.39 2.406 1.279 2.478 1.164 2.544 1.045 2.605.923 2.662.798 2.711.671 2.756.541 2.794.409 2.827.275 2.852.139 2.871.003 2.885-.135 2.892-.273 2.891-.411 2.885-.55 2.872-.689 2.852-.825 2.826-.963 2.792-1.097 2.753-1.231 2.707-1.363 2.654-1.492 2.594-1.62 2.53-1.743 2.458-1.864 2.38-1.981 2.296-2.095 2.207-2.205 2.113-2.31 2.011-2.41 1.907-2.506 1.795-2.597 1.68-2.683 1.56-2.762 1.436-2.836 1.308-2.904 1.175-2.966 1.04-3.021.901-3.07.759-3.112.615-3.148.468-3.176.32-3.197.169-3.212.018-3.219-.135-3.218-.287-3.211-.442-3.196-.594-3.174-.748-3.143-.899-3.107-1.05-3.063-1.2-3.011-1.348-2.953-1.493-2.886-1.636-2.814-1.776-2.735-1.913-2.649-2.046-2.556-2.175-2.456-2.301-2.352-2.421-2.24-2.537-2.124-2.648-2.002-2.754-1.873-2.853-1.742-2.947-1.603-3.035-1.463-3.117-1.316-3.191-1.167-3.258-1.013-3.32-.858-3.374-.698-3.419-.536-3.459-.373-3.49-.207-3.513-.041-3.529.127-3.537.296-3.537.465-3.528.633-3.511.802-3.488.968-3.455 1.135-3.415 1.299-3.366 1.46-3.31 1.621-3.245 1.778-3.174 1.932-3.095 2.081-3.008 2.229-2.913 2.37-2.813 2.507-2.704 2.64-2.59 2.767-2.468L55 42.594l3.004-2.207 3.114-2.069 3.217-1.923 3.313-1.774L71.05 33l3.485-1.46 3.56-1.297 3.625-1.13 3.685-.96 3.736-.788 3.779-.61 3.813-.433 3.839-.252 3.857-.071 3.865.112 3.866.296 3.857.479 3.839.662 3.814.846 3.778 1.027 3.735 1.209 3.682 1.386 3.622 1.563 3.552 1.737 3.474 1.908" class="Spirale"/>
  </g>
</svg>

