<svg viewBox="-88 21 150 141" width="512" height="512" xmlns="http://www.w3.org/2000/svg" role="img">
  <g transform="matrix(0.002682148490745166,0,0,0.002682148490745166,-94.53152401937314,10.465793832136121)" fill="oklch(85% 0.138 181.071)">
    <path d="M32103 30449c0,311 -252,563 -563,563 -311,0 -563,-252 -563,-563 0,-388 -150,-738 -393,-989 -237,-245 -564,-397 -926,-397 -362,0 -689,152 -926,397 -243,251 -393,601 -393,989 0,926 361,1763 944,2368 577,598 1375,968 2256,968 881,0 1679,-370 2256,-968 583,-604 944,-1441 944,-2368 0,-1465 -571,-2789 -1495,-3746 -918,-951 -2186,-1539 -3587,-1539 -1401,0 -2669,588 -3587,1539 -924,957 -1495,2281 -1495,3746 0,2003 782,3815 2046,5125 1258,1304 2997,2110 4917,2110 1920,0 3659,-806 4917,-2110 1264,-1310 2046,-3121 2046,-5125 0,-2542 -993,-4841 -2597,-6503 -1599,-1657 -3808,-2681 -6248,-2681 -2440,0 -4649,1025 -6248,2681 -1605,1663 -2597,3962 -2597,6503 0,3080 1203,5866 3148,7882 1939,2009 4619,3252 7578,3252 2960,0 5639,-1243 7578,-3252 1945,-2015 3148,-4802 3148,-7882 0,-3618 -1414,-6892 -3699,-9260 -2280,-2362 -5430,-3823 -8909,-3823 -3479,0 -6629,1461 -8909,3823 -2286,2368 -3699,5642 -3699,9260 0,4157 1624,7918 4251,10639 2620,2715 6241,4394 10239,4394 1657,0 3253,-289 4742,-820 1928,-816 3664,-1996 5122,-3454 2918,-2918 4723,-6950 4723,-11403 0,-4453 -1805,-8484 -4723,-11403 -2918,-2918 -6950,-4723 -11403,-4723 -4453,0 -8484,1805 -11403,4723 -2918,2918 -4723,6950 -4723,11403 0,4453 1805,8484 4723,11403 1797,1797 4016,3172 6496,3963 -1724,-810 -3282,-1935 -4603,-3304 -2822,-2924 -4567,-6961 -4567,-11418 0,-3919 1535,-7468 4016,-10039 2487,-2577 5923,-4171 9718,-4171 3795,0 7231,1594 9718,4171 2481,2571 4016,6120 4016,10039 0,3380 -1324,6442 -3465,8660 -2147,2224 -5112,3600 -8388,3600 -3276,0 -6241,-1376 -8388,-3600 -2141,-2218 -3465,-5280 -3465,-8660 0,-2842 1114,-5417 2914,-7282 1806,-1871 4301,-3029 7057,-3029 2756,0 5251,1157 7057,3029 1800,1865 2914,4440 2914,7282 0,2304 -903,4391 -2363,5903 -1466,1519 -3490,2458 -5727,2458 -2236,0 -4261,-939 -5727,-2458 -1460,-1513 -2363,-3600 -2363,-5903 0,-1765 692,-3365 1812,-4525 1125,-1166 2680,-1887 4396,-1887 1717,0 3271,721 4396,1887 1119,1160 1812,2760 1812,4525 0,1227 -482,2339 -1261,3146 -785,813 -1869,1316 -3066,1316 -1197,0 -2281,-503 -3066,-1316 -779,-807 -1261,-1920 -1261,-3146 0,-689 271,-1314 710,-1768 444,-460 1058,-745 1735,-745 678,0 1291,285 1735,745 438,454 710,1079 710,1768zm3530 -20110c-50,188 -243,299 -430,249 -188,-50 -299,-243 -249,-430l1606 -5995c50,-188 243,-299 430,-249 188,50 299,243 249,430l-1606 5995zm-12191 45499c-50,188 -243,299 -430,249 -188,-50 -299,-243 -249,-430l1606 -5995c50,-188 243,-299 430,-249 188,50 299,243 249,430l-1606 5995zm21268 -40049c-137,137 -360,137 -498,0 -137,-137 -137,-360 0,-498l4389 -4389c137,-137 360,-137 498,0 137,137 137,360 0,498l-4389 4389zm-33308 33308c-137,137 -360,137 -498,0 -137,-137 -137,-360 0,-498l4389 -4389c137,-137 360,-137 498,0 137,137 137,360 0,498l-4389 4389zm38442 -24050c-188,50 -380,-61 -430,-249 -50,-188 61,-380 249,-430l5995 -1606c188,-50 380,61 430,249 50,188 -61,380 -249,430l-5995 1606zm-45499 12191c-188,50 -380,-61 -430,-249 -50,-188 61,-380 249,-430l5995 -1606c188,-50 380,61 430,249 50,188 -61,380 -249,430l-5995 1606zm45318 -1606c-188,-50 -299,-243 -249,-430 50,-188 243,-299 430,-249l5995 1606c188,50 299,243 249,430 -50,188 -243,299 -430,249l-5995 -1606zm-45499 -12191c-188,-50 -299,-243 -249,-430 50,-188 243,-299 430,-249l5995 1606c188,50 299,243 249,430 -50,188 -243,299 -430,249l-5995 -1606zm40049 21268c-137,-137 -137,-360 0,-498 137,-137 360,-137 498,0l4389 4389c137,137 137,360 0,498 -137,137 -360,137 -498,0l-4389 -4389zm-33308 -33308c-137,-137 -137,-360 0,-498 137,-137 360,-137 498,0l4389 4389c137,137 137,360 0,498 -137,137 -360,137 -498,0l-4389 -4389zm24050 38442c-50,-188 61,-380 249,-430 188,-50 380,61 430,249l1606 5995c50,188 -61,380 -249,430 -188,50 -380,-61 -430,-249l-1606 -5995zm-12191 -45499c-50,-188 61,-380 249,-430 188,-50 380,61 430,249l1606 5995c50,188 -61,380 -249,430 -188,50 -380,-61 -430,-249l-1606 -5995zm15461 10292l2296 -3976c156,-268 499,-360 768,-205 268,156 360,499 205,768l-2299 3981c1091,688 2100,1495 3008,2403 970,970 1825,2056 2543,3234l4038 -2331c268,-154 611,-62 766,207 154,268 62,611 -207,766l-4044 2335c1197,2286 1896,4874 1953,7620l4760 0c311,0 563,252 563,563 0,311 -252,563 -563,563l-4768 0c-19,2762 -716,5360 -1927,7629l4028 2326c268,156 360,499 205,768 -156,268 -499,360 -768,205l-4028 -2326c-610,974 -1318,1877 -2110,2693 -1050,1082 -2247,2011 -3556,2754l2407 4169c154,268 62,611 -207,766 -268,154 -611,62 -766,-207l-2430 -4209c-450,214 -911,406 -1382,576 -1898,801 -3969,1273 -6142,1343l0 4959c0,311 -252,563 -563,563 -311,0 -563,-252 -563,-563l0 -4959c-2698,-87 -5240,-793 -7487,-1981l-2467 4273c-156,268 -499,360 -768,205 -268,-156 -360,-499 -205,-768l2464 -4267c-1155,-710 -2219,-1552 -3173,-2506 -891,-891 -1685,-1880 -2365,-2948l-4216 2434c-268,154 -611,62 -766,-207 -154,-268 -62,-611 207,-766l4203 -2427c-1235,-2251 -1982,-4808 -2100,-7528l-4772 0c-311,0 -563,-252 -563,-563 0,-311 252,-563 563,-563l4760 0c58,-2745 757,-5333 1953,-7619l-4046 -2336c-268,-156 -360,-499 -205,-768 156,-268 499,-360 768,-205l4036 2330c718,-1178 1573,-2263 2543,-3233 908,-908 1917,-1715 3009,-2403l-2300 -3983c-154,-268 -62,-611 207,-766 268,-154 611,-62 766,207l2295 3975c2290,-1244 4892,-1984 7660,-2073l0 -4571c0,-311 252,-563 563,-563 311,0 563,252 563,563l0 4571c2767,89 5369,829 7659,2072z" style="fill: oklch(85% 0.138 181.071); fill-rule: nonzero;"/>
  </g>
</svg>